<svg width="20" height="19" viewBox="0 0 20 19" fill="none" xmlns="http://www.w3.org/2000/svg">
<path d="M14.92 18.6976C14.696 18.6976 14.477 18.6476 14.274 18.5516L14.17 18.5006L10.063 16.1576L5.95599 18.5016L5.84999 18.5546C5.36199 18.7826 4.76499 18.7286 4.32899 18.4116C3.85999 18.0716 3.62799 17.4786 3.74299 16.9026L4.69999 12.2606L3.09799 10.8036L1.20299 9.07862L1.12499 8.99663C0.749992 8.60063 0.615992 8.02662 0.784992 7.50462C0.957992 6.98062 1.40499 6.59263 1.94499 6.49563L2.04699 6.47763L6.74799 5.95663L8.69399 1.64663L8.75399 1.53663C9.01599 1.06363 9.51799 0.765625 10.063 0.765625C10.606 0.765625 11.107 1.06362 11.372 1.53562L11.432 1.64762L13.38 5.95962L18.081 6.48062L18.185 6.49762C18.724 6.59762 19.171 6.98362 19.343 7.50962C19.513 8.03062 19.378 8.60763 19.003 9.00363L18.925 9.08162L15.427 12.2656L16.384 16.8976C16.497 17.4846 16.266 18.0756 15.794 18.4166C15.542 18.5986 15.238 18.6976 14.92 18.6976ZM6.77099 12.1336C6.73199 12.3156 6.30499 14.3796 5.92599 16.2156L9.56899 14.1386C9.87599 13.9636 10.253 13.9636 10.559 14.1386L14.202 16.2136L13.353 12.1096C13.282 11.7636 13.398 11.4046 13.661 11.1676L16.761 8.34563L12.593 7.88462C12.242 7.84562 11.939 7.62463 11.792 7.30063L10.064 3.47963L8.33799 7.30063C8.19199 7.62263 7.88799 7.84362 7.53699 7.88462L3.36899 8.34563L6.46899 11.1676C6.74099 11.4136 6.85299 11.7846 6.77099 12.1336Z" fill="white"/>
</svg>
