<svg width="17" height="81" viewBox="0 0 17 81" fill="none" xmlns="http://www.w3.org/2000/svg">
<path d="M12.6211 74.7266V72.7266H7.62109V70.7266H12.6211V68.7266L15.6211 71.7266L12.6211 74.7266ZM11.6211 73.7266V77.7266H6.62109V80.7266L0.621094 77.7266V64.7266H11.6211V69.7266H10.6211V65.7266H2.62109L6.62109 67.7266V76.7266H10.6211V73.7266H11.6211Z" fill="white"/>
<path d="M1.12109 48.7266V50.7266H15.1211V48.7266H1.12109ZM1.12109 58.7266H5.12109V64.7266H11.1211V58.7266H15.1211L8.12109 51.7266L1.12109 58.7266Z" fill="white"/>
<path fill-rule="evenodd" clip-rule="evenodd" d="M6.12542 34.7288C5.06379 34.7288 4.04564 35.1505 3.29495 35.9012C2.54427 36.6519 2.12254 37.67 2.12254 38.7317C2.12254 39.7933 2.54427 40.8114 3.29495 41.5621C4.04564 42.3128 5.06379 42.7345 6.12542 42.7345C7.18705 42.7345 8.2052 42.3128 8.95588 41.5621C9.70657 40.8114 10.1283 39.7933 10.1283 38.7317C10.1283 37.67 9.70657 36.6519 8.95588 35.9012C8.2052 35.1505 7.18705 34.7288 6.12542 34.7288ZM0.121094 38.7317C0.120973 37.7867 0.343897 36.855 0.771734 36.0124C1.19957 35.1699 1.82024 34.4402 2.58326 33.8827C3.34629 33.3252 4.23012 32.9557 5.16287 32.8042C6.09563 32.6527 7.05097 32.7235 7.9512 33.0109C8.85143 33.2982 9.67112 33.794 10.3436 34.4579C11.0161 35.1217 11.5224 35.935 11.8214 36.8314C12.1203 37.7279 12.2035 38.6822 12.064 39.6168C11.9246 40.5515 11.5665 41.44 11.0189 42.2102L15.8394 47.0306C16.0217 47.2194 16.1226 47.4722 16.1203 47.7345C16.118 47.9969 16.0128 48.2479 15.8272 48.4335C15.6417 48.619 15.3907 48.7242 15.1283 48.7265C14.8659 48.7288 14.6131 48.6279 14.4244 48.4456L9.60492 43.6262C8.70664 44.2649 7.64986 44.6441 6.5504 44.7221C5.45094 44.8001 4.35121 44.574 3.37174 44.0685C2.39226 43.563 1.57082 42.7976 0.997448 41.8563C0.424072 40.9149 0.12088 39.8339 0.121094 38.7317Z" fill="white"/>
<path fill-rule="evenodd" clip-rule="evenodd" d="M12.3324 19.2529V18.4108C12.3324 17.4806 11.5784 16.7266 10.6482 16.7266H5.5956C4.66544 16.7266 3.91139 17.4806 3.91139 18.4108V19.2529H1.38507C0.919996 19.2529 0.542969 19.6299 0.542969 20.095C0.542969 20.5601 0.919996 20.9371 1.38507 20.9371H2.22718V30.2002C2.22718 31.5955 3.35825 32.7266 4.7535 32.7266H11.4903C12.8856 32.7266 14.0167 31.5955 14.0167 30.2002V20.9371H14.8588C15.3239 20.9371 15.7009 20.5601 15.7009 20.095C15.7009 19.6299 15.3239 19.2529 14.8588 19.2529H12.3324ZM10.6482 18.4108H5.5956V19.2529H10.6482V18.4108ZM12.3324 20.9371H3.91139V30.2002C3.91139 30.6653 4.28842 31.0424 4.7535 31.0424H11.4903C11.9554 31.0424 12.3324 30.6653 12.3324 30.2002V20.9371Z" fill="white"/>
<path d="M5.5957 22.6211H7.27991V29.3579H5.5957V22.6211Z" fill="white"/>
<path d="M8.96484 22.6211H10.6491V29.3579H8.96484V22.6211Z" fill="white"/>
<path d="M12.5655 0.726562H1.89887C1.42738 0.726563 0.975191 0.913863 0.641793 1.24726C0.308395 1.58066 0.121094 2.03284 0.121094 2.50434V14.9488C0.121094 15.4203 0.308395 15.8725 0.641793 16.2059C0.975191 16.5393 1.42738 16.7266 1.89887 16.7266H14.3433C15.3211 16.7266 16.1211 15.9266 16.1211 14.9488V4.28212L12.5655 0.726562ZM14.3433 14.9488H1.89887V2.50434H11.8278L14.3433 5.0199V14.9488ZM8.12109 8.72656C6.64554 8.72656 5.45443 9.91767 5.45443 11.3932C5.45443 12.8688 6.64554 14.0599 8.12109 14.0599C9.59665 14.0599 10.7878 12.8688 10.7878 11.3932C10.7878 9.91767 9.59665 8.72656 8.12109 8.72656ZM2.78776 3.39323H10.7878V6.94878H2.78776V3.39323Z" fill="white"/>
</svg>
