<svg width="16" height="16" viewBox="0 0 16 16" fill="none" xmlns="http://www.w3.org/2000/svg">
<path fill-rule="evenodd" clip-rule="evenodd" d="M6.40081 2.18966C5.40548 2.18966 4.45092 2.58505 3.74712 3.28885C3.04332 3.99266 2.64793 4.94722 2.64793 5.94254C2.64793 6.93787 3.04332 7.89243 3.74712 8.59623C4.45092 9.30003 5.40548 9.69542 6.40081 9.69542C7.39613 9.69542 8.35069 9.30003 9.0545 8.59623C9.7583 7.89243 10.1537 6.93787 10.1537 5.94254C10.1537 4.94722 9.7583 3.99266 9.0545 3.28885C8.35069 2.58505 7.39613 2.18966 6.40081 2.18966ZM0.771484 5.94254C0.771371 5.05658 0.980372 4.18311 1.38149 3.39315C1.7826 2.6032 2.36451 1.91908 3.07988 1.39642C3.79525 0.873762 4.62388 0.527332 5.49838 0.385305C6.37288 0.243278 7.26855 0.309664 8.11256 0.579064C8.95656 0.848464 9.72507 1.31327 10.3556 1.93568C10.9861 2.55809 11.4607 3.32053 11.741 4.16099C12.0213 5.00144 12.0992 5.89619 11.9685 6.77245C11.8378 7.64871 11.5021 8.48174 10.9887 9.2038L15.5081 13.7232C15.679 13.9002 15.7736 14.1372 15.7714 14.3831C15.7693 14.6291 15.6706 14.8645 15.4967 15.0384C15.3227 15.2124 15.0874 15.311 14.8414 15.3132C14.5954 15.3153 14.3584 15.2208 14.1815 15.0498L9.663 10.5314C8.82082 11.1302 7.83004 11.4857 6.79925 11.5588C5.76845 11.632 4.73741 11.42 3.81911 10.946C2.9008 10.4721 2.13067 9.75456 1.59311 8.87199C1.05554 7.98943 0.771284 6.97593 0.771484 5.94254Z" fill="#233962"/>
</svg>
