<svg width="19" height="19" viewBox="0 0 19 19" fill="none" xmlns="http://www.w3.org/2000/svg">
<path d="M16.9043 3.4965V3.3125C16.9043 1.6555 15.5613 0.3125 13.9043 0.3125C12.2473 0.3125 10.9043 1.6555 10.9043 3.3125H8.9043C8.9043 1.6555 7.5613 0.3125 5.9043 0.3125C4.2473 0.3125 2.9043 1.6555 2.9043 3.3125V3.4965C1.7433 3.9115 0.904297 5.0105 0.904297 6.3125V15.3125C0.904297 16.9665 2.2503 18.3125 3.9043 18.3125H15.9043C17.5583 18.3125 18.9043 16.9665 18.9043 15.3125V6.3125C18.9043 5.0105 18.0653 3.9115 16.9043 3.4965ZM12.9043 3.3125C12.9043 2.7605 13.3513 2.3125 13.9043 2.3125C14.4573 2.3125 14.9043 2.7605 14.9043 3.3125V5.3125C14.9043 5.8645 14.4573 6.3125 13.9043 6.3125C13.3513 6.3125 12.9043 5.8645 12.9043 5.3125V3.3125ZM4.9043 3.3125C4.9043 2.7605 5.3513 2.3125 5.9043 2.3125C6.4573 2.3125 6.9043 2.7605 6.9043 3.3125V5.3125C6.9043 5.8645 6.4573 6.3125 5.9043 6.3125C5.3513 6.3125 4.9043 5.8645 4.9043 5.3125V3.3125ZM16.9043 15.3125C16.9043 15.8635 16.4563 16.3125 15.9043 16.3125H3.9043C3.3523 16.3125 2.9043 15.8635 2.9043 15.3125V9.3125H16.9043V15.3125ZM16.9043 8.3125H2.9043V6.3125C2.9043 5.7615 3.3523 5.3125 3.9043 5.3125C3.9043 6.4165 4.8003 7.3125 5.9043 7.3125C7.0083 7.3125 7.9043 6.4165 7.9043 5.3125H11.9043C11.9043 6.4165 12.8003 7.3125 13.9043 7.3125C15.0083 7.3125 15.9043 6.4165 15.9043 5.3125C16.4563 5.3125 16.9043 5.7615 16.9043 6.3125V8.3125Z" fill="#CCCCCC"/>
</svg>
