<svg width="231" height="26" viewBox="0 0 231 26" fill="none" xmlns="http://www.w3.org/2000/svg">
<path d="M18.8703 20.1543L17.5963 17.2943H9.3283L8.0543 20.1543H0.514297L9.5623 1.9543H17.4663L26.5143 20.1543H18.8703ZM11.3043 12.8743H15.6203L13.4623 8.0383L11.3043 12.8743ZM34.5152 20.1543H27.4952V5.5943H34.5152V7.5183C35.8412 5.8803 37.6092 5.0743 39.8712 5.0743C43.8752 5.0743 46.2412 7.7003 46.2412 11.3923V20.1543H39.2212V11.8083C39.2212 10.7683 38.4932 10.0143 37.2972 10.0143C36.3352 10.0143 35.4512 10.4823 34.5152 11.7303V20.1543ZM68.0373 5.5943V17.0083C68.0373 24.0543 62.2133 25.8743 57.5073 25.8743C54.8033 25.8743 51.4493 25.2763 49.4473 24.3143L51.0593 20.1283C52.1253 20.7263 54.5173 21.3243 56.6233 21.3243C59.8733 21.3243 61.0173 19.9203 61.0173 18.3603V17.3723C59.6133 19.0363 57.6893 19.6343 55.6353 19.6343C51.1373 19.6343 48.1213 16.9823 48.1213 12.3543C48.1213 7.7003 51.1373 5.0743 55.6353 5.0743C57.7153 5.0743 59.6133 5.6723 61.0173 7.3363V5.5943H68.0373ZM57.6373 14.8503C58.9113 14.8503 60.0813 14.2783 61.0173 13.1343V11.5743C60.0813 10.4303 58.9113 9.8583 57.6373 9.8583C55.7393 9.8583 54.7253 10.8983 54.7253 12.3543C54.7253 13.7843 55.7393 14.8503 57.6373 14.8503ZM76.7142 14.3043C77.2082 15.7343 78.5602 16.2023 80.7442 16.2023C82.7722 16.2023 83.8382 15.7863 85.1642 14.9023L88.4922 18.2563C86.3602 20.1283 83.5782 20.7783 80.3542 20.7783C73.8542 20.7783 70.0842 17.8403 70.0842 12.8743C70.0842 7.9603 73.8022 4.9703 79.8082 4.9703C84.9822 4.9703 89.0642 7.5183 89.0642 12.6403C89.0642 13.3683 88.9862 13.8623 88.8562 14.3043H76.7142ZM79.8602 9.4423C78.4042 9.4423 77.2862 9.9623 76.7922 11.1843H82.7982C82.3562 10.0663 81.4202 9.4423 79.8602 9.4423ZM98.0933 20.1543H91.0733V0.914297H98.0933V20.1543ZM113.979 1.9543C119.465 1.9543 123.079 4.1123 123.079 8.6883C123.079 13.2643 119.465 15.4223 113.979 15.4223H108.363V20.1543H101.083V1.9543H113.979ZM113.381 10.8463C114.733 10.8463 115.747 10.3003 115.747 8.8963C115.747 7.4923 114.733 6.9463 113.381 6.9463H108.363V10.8463H113.381ZM133.065 5.0223C138.993 5.0223 142.477 7.5183 142.477 11.9643V17.4503C142.477 18.4903 142.659 19.3223 143.075 20.1543H136.055C135.795 19.8683 135.613 19.4523 135.613 19.0623V18.9843C134.521 20.0503 132.675 20.6743 130.465 20.6743C127.501 20.6743 123.809 19.5043 123.809 15.8643C123.809 12.2243 127.501 11.0543 130.465 11.0543C132.675 11.0543 134.521 11.6783 135.613 12.7443V11.8603C135.613 10.4563 134.183 9.5723 131.583 9.5723C130.231 9.5723 128.359 9.8063 126.487 10.5863L125.317 6.2963C127.449 5.4383 130.647 5.0223 133.065 5.0223ZM135.717 15.9423V15.7863C134.885 14.9023 133.637 14.6683 132.727 14.6683C131.687 14.6683 130.569 14.9803 130.569 15.8643C130.569 16.7483 131.687 17.0603 132.727 17.0603C133.637 17.0603 134.885 16.8263 135.717 15.9423ZM156.121 5.5943H163.115L153.625 25.3543H146.631L149.647 19.4523L142.783 5.5943H149.881L153.105 13.2903L156.121 5.5943Z" fill="#233962"/>
<path d="M176.086 20.1543C175.99 19.8543 175.774 19.3683 175.438 18.6963L170.2 9.0483C169.888 8.4603 169.588 7.9623 169.3 7.5543H170.47C170.566 7.8783 170.8 8.3763 171.172 9.0483L175.744 17.4003L176.716 19.2183H176.824L177.796 17.4183L182.368 9.0483C182.716 8.4003 182.95 7.9023 183.07 7.5543H184.24C184.012 7.8543 183.712 8.3523 183.34 9.0483L178.102 18.6603C177.742 19.3443 177.508 19.8423 177.4 20.1543H176.086ZM187.337 8.7783C187.205 8.9103 187.043 8.9763 186.851 8.9763C186.659 8.9763 186.491 8.9103 186.347 8.7783C186.203 8.6463 186.131 8.4903 186.131 8.3103C186.131 8.1183 186.197 7.9563 186.329 7.8243C186.473 7.6923 186.647 7.6263 186.851 7.6263C187.043 7.6263 187.205 7.6923 187.337 7.8243C187.481 7.9563 187.553 8.1183 187.553 8.3103C187.553 8.4903 187.481 8.6463 187.337 8.7783ZM186.329 20.1543C186.401 19.8303 186.437 19.3323 186.437 18.6603V12.6483C186.437 11.9643 186.401 11.4663 186.329 11.1543C186.665 11.2263 187.007 11.2263 187.355 11.1543C187.283 11.4663 187.247 11.9643 187.247 12.6483V18.6603C187.247 19.3323 187.283 19.8303 187.355 20.1543H186.329ZM194.629 20.4063C193.873 20.4063 193.027 20.3103 192.091 20.1183C191.155 19.9143 190.423 19.6743 189.895 19.3983L189.949 18.5883C190.501 18.9003 191.221 19.1643 192.109 19.3803C193.009 19.5963 193.849 19.7043 194.629 19.7043C195.673 19.7043 196.495 19.5363 197.095 19.2003C197.707 18.8643 198.013 18.4083 198.013 17.8323C198.013 17.2923 197.749 16.8783 197.221 16.5903C196.693 16.2903 196.051 16.0863 195.295 15.9783C194.539 15.8583 193.783 15.7323 193.027 15.6003C192.271 15.4683 191.629 15.2223 191.101 14.8623C190.573 14.5023 190.309 13.9983 190.309 13.3503C190.309 12.6063 190.693 12.0123 191.461 11.5683C192.229 11.1243 193.219 10.9023 194.431 10.9023C195.691 10.9023 196.933 11.1303 198.157 11.5863V12.3243C197.701 12.1323 197.113 11.9643 196.393 11.8203C195.673 11.6643 195.013 11.5863 194.413 11.5863C193.489 11.5863 192.709 11.7423 192.073 12.0543C191.449 12.3663 191.137 12.7923 191.137 13.3323C191.137 13.7643 191.323 14.1123 191.695 14.3763C192.079 14.6403 192.553 14.8203 193.117 14.9163C193.693 15.0003 194.311 15.1023 194.971 15.2223C195.643 15.3423 196.261 15.4743 196.825 15.6183C197.401 15.7623 197.875 16.0203 198.247 16.3923C198.631 16.7523 198.823 17.2203 198.823 17.7963C198.823 18.5643 198.445 19.1943 197.689 19.6863C196.945 20.1663 195.925 20.4063 194.629 20.4063ZM205.963 20.4063C204.607 20.4063 203.539 20.0463 202.759 19.3263C201.991 18.6063 201.607 17.5983 201.607 16.3023V12.6303C201.607 11.9583 201.571 11.4663 201.499 11.1543H202.525C202.453 11.4663 202.417 11.9583 202.417 12.6303V16.2843C202.417 17.3763 202.741 18.2103 203.389 18.7863C204.037 19.3503 204.919 19.6323 206.035 19.6323C207.175 19.6323 208.165 19.2423 209.005 18.4623C209.845 17.6823 210.265 16.7583 210.265 15.6903V12.6303C210.265 11.9583 210.229 11.4663 210.157 11.1543H211.183C211.111 11.4663 211.075 11.9583 211.075 12.6303V18.6603C211.075 19.3323 211.111 19.8303 211.183 20.1543H210.157C210.229 19.8303 210.265 19.3323 210.265 18.6603V17.6163H210.139C209.863 18.5283 209.329 19.2243 208.537 19.7043C207.757 20.1723 206.899 20.4063 205.963 20.4063ZM218.501 20.4063C217.049 20.4063 215.921 20.1183 215.117 19.5423C214.313 18.9663 213.911 18.1923 213.911 17.2203C213.911 16.2603 214.307 15.4983 215.099 14.9343C215.903 14.3703 217.037 14.0883 218.501 14.0883C219.473 14.0883 220.337 14.2743 221.093 14.6463C221.861 15.0183 222.395 15.4623 222.695 15.9783H222.839V14.5383C222.839 13.4943 222.509 12.7503 221.849 12.3063C221.201 11.8623 220.235 11.6403 218.951 11.6403C218.207 11.6403 217.469 11.7243 216.737 11.8923C216.017 12.0483 215.441 12.2403 215.009 12.4683V11.6763C216.221 11.1603 217.529 10.9023 218.933 10.9023C222.077 10.9023 223.649 12.1203 223.649 14.5563V18.6603C223.649 19.3443 223.685 19.8423 223.757 20.1543H222.677C222.785 19.7823 222.839 19.2963 222.839 18.6963V18.4263H222.713C222.425 18.9783 221.897 19.4463 221.129 19.8303C220.361 20.2143 219.485 20.4063 218.501 20.4063ZM218.681 19.6863C219.377 19.6863 220.031 19.6023 220.643 19.4343C221.255 19.2543 221.771 18.9723 222.191 18.5883C222.623 18.1923 222.839 17.7243 222.839 17.1843C222.839 16.4763 222.407 15.8943 221.543 15.4383C220.691 14.9703 219.737 14.7363 218.681 14.7363C217.433 14.7363 216.461 14.9523 215.765 15.3843C215.081 15.8163 214.739 16.4163 214.739 17.1843C214.739 17.9523 215.087 18.5643 215.783 19.0203C216.479 19.4643 217.445 19.6863 218.681 19.6863ZM227.235 20.1543C227.307 19.7463 227.343 19.2483 227.343 18.6603V9.0483C227.343 8.4603 227.307 7.9623 227.235 7.5543H228.243C228.183 7.8903 228.153 8.3883 228.153 9.0483V18.6603C228.153 19.3203 228.183 19.8183 228.243 20.1543H227.235Z" fill="#233962"/>
</svg>
