<svg width="231" height="26" viewBox="0 0 231 26" fill="none" xmlns="http://www.w3.org/2000/svg">
<path d="M18.8703 19.3125L17.5963 16.4525H9.3283L8.0543 19.3125H0.514297L9.5623 1.1125H17.4663L26.5143 19.3125H18.8703ZM11.3043 12.0325H15.6203L13.4623 7.1965L11.3043 12.0325ZM34.5152 19.3125H27.4952V4.7525H34.5152V6.6765C35.8412 5.0385 37.6092 4.2325 39.8712 4.2325C43.8752 4.2325 46.2412 6.8585 46.2412 10.5505V19.3125H39.2212V10.9665C39.2212 9.9265 38.4932 9.1725 37.2972 9.1725C36.3352 9.1725 35.4512 9.6405 34.5152 10.8885V19.3125ZM68.0373 4.7525V16.1665C68.0373 23.2125 62.2133 25.0325 57.5073 25.0325C54.8033 25.0325 51.4493 24.4345 49.4473 23.4725L51.0593 19.2865C52.1253 19.8845 54.5173 20.4825 56.6233 20.4825C59.8733 20.4825 61.0173 19.0785 61.0173 17.5185V16.5305C59.6133 18.1945 57.6893 18.7925 55.6353 18.7925C51.1373 18.7925 48.1213 16.1405 48.1213 11.5125C48.1213 6.8585 51.1373 4.2325 55.6353 4.2325C57.7153 4.2325 59.6133 4.8305 61.0173 6.4945V4.7525H68.0373ZM57.6373 14.0085C58.9113 14.0085 60.0813 13.4365 61.0173 12.2925V10.7325C60.0813 9.5885 58.9113 9.0165 57.6373 9.0165C55.7393 9.0165 54.7253 10.0565 54.7253 11.5125C54.7253 12.9425 55.7393 14.0085 57.6373 14.0085ZM76.7142 13.4625C77.2082 14.8925 78.5602 15.3605 80.7442 15.3605C82.7722 15.3605 83.8382 14.9445 85.1642 14.0605L88.4922 17.4145C86.3602 19.2865 83.5782 19.9365 80.3542 19.9365C73.8542 19.9365 70.0842 16.9985 70.0842 12.0325C70.0842 7.1185 73.8022 4.1285 79.8082 4.1285C84.9822 4.1285 89.0642 6.6765 89.0642 11.7985C89.0642 12.5265 88.9862 13.0205 88.8562 13.4625H76.7142ZM79.8602 8.6005C78.4042 8.6005 77.2862 9.1205 76.7922 10.3425H82.7982C82.3562 9.2245 81.4202 8.6005 79.8602 8.6005ZM98.0933 19.3125H91.0733V0.0724998H98.0933V19.3125ZM113.979 1.1125C119.465 1.1125 123.079 3.2705 123.079 7.8465C123.079 12.4225 119.465 14.5805 113.979 14.5805H108.363V19.3125H101.083V1.1125H113.979ZM113.381 10.0045C114.733 10.0045 115.747 9.4585 115.747 8.0545C115.747 6.6505 114.733 6.1045 113.381 6.1045H108.363V10.0045H113.381ZM133.065 4.1805C138.993 4.1805 142.477 6.6765 142.477 11.1225V16.6085C142.477 17.6485 142.659 18.4805 143.075 19.3125H136.055C135.795 19.0265 135.613 18.6105 135.613 18.2205V18.1425C134.521 19.2085 132.675 19.8325 130.465 19.8325C127.501 19.8325 123.809 18.6625 123.809 15.0225C123.809 11.3825 127.501 10.2125 130.465 10.2125C132.675 10.2125 134.521 10.8365 135.613 11.9025V11.0185C135.613 9.6145 134.183 8.7305 131.583 8.7305C130.231 8.7305 128.359 8.9645 126.487 9.7445L125.317 5.4545C127.449 4.5965 130.647 4.1805 133.065 4.1805ZM135.717 15.1005V14.9445C134.885 14.0605 133.637 13.8265 132.727 13.8265C131.687 13.8265 130.569 14.1385 130.569 15.0225C130.569 15.9065 131.687 16.2185 132.727 16.2185C133.637 16.2185 134.885 15.9845 135.717 15.1005ZM156.121 4.7525H163.115L153.625 24.5125H146.631L149.647 18.6105L142.783 4.7525H149.881L153.105 12.4485L156.121 4.7525Z" fill="white"/>
<path d="M176.086 19.3125C175.99 19.0125 175.774 18.5265 175.438 17.8545L170.2 8.2065C169.888 7.6185 169.588 7.1205 169.3 6.7125H170.47C170.566 7.0365 170.8 7.5345 171.172 8.2065L175.744 16.5585L176.716 18.3765H176.824L177.796 16.5765L182.368 8.2065C182.716 7.5585 182.95 7.0605 183.07 6.7125H184.24C184.012 7.0125 183.712 7.5105 183.34 8.2065L178.102 17.8185C177.742 18.5025 177.508 19.0005 177.4 19.3125H176.086ZM187.337 7.9365C187.205 8.0685 187.043 8.1345 186.851 8.1345C186.659 8.1345 186.491 8.0685 186.347 7.9365C186.203 7.8045 186.131 7.6485 186.131 7.4685C186.131 7.2765 186.197 7.1145 186.329 6.9825C186.473 6.8505 186.647 6.7845 186.851 6.7845C187.043 6.7845 187.205 6.8505 187.337 6.9825C187.481 7.1145 187.553 7.2765 187.553 7.4685C187.553 7.6485 187.481 7.8045 187.337 7.9365ZM186.329 19.3125C186.401 18.9885 186.437 18.4905 186.437 17.8185V11.8065C186.437 11.1225 186.401 10.6245 186.329 10.3125C186.665 10.3845 187.007 10.3845 187.355 10.3125C187.283 10.6245 187.247 11.1225 187.247 11.8065V17.8185C187.247 18.4905 187.283 18.9885 187.355 19.3125H186.329ZM194.629 19.5645C193.873 19.5645 193.027 19.4685 192.091 19.2765C191.155 19.0725 190.423 18.8325 189.895 18.5565L189.949 17.7465C190.501 18.0585 191.221 18.3225 192.109 18.5385C193.009 18.7545 193.849 18.8625 194.629 18.8625C195.673 18.8625 196.495 18.6945 197.095 18.3585C197.707 18.0225 198.013 17.5665 198.013 16.9905C198.013 16.4505 197.749 16.0365 197.221 15.7485C196.693 15.4485 196.051 15.2445 195.295 15.1365C194.539 15.0165 193.783 14.8905 193.027 14.7585C192.271 14.6265 191.629 14.3805 191.101 14.0205C190.573 13.6605 190.309 13.1565 190.309 12.5085C190.309 11.7645 190.693 11.1705 191.461 10.7265C192.229 10.2825 193.219 10.0605 194.431 10.0605C195.691 10.0605 196.933 10.2885 198.157 10.7445V11.4825C197.701 11.2905 197.113 11.1225 196.393 10.9785C195.673 10.8225 195.013 10.7445 194.413 10.7445C193.489 10.7445 192.709 10.9005 192.073 11.2125C191.449 11.5245 191.137 11.9505 191.137 12.4905C191.137 12.9225 191.323 13.2705 191.695 13.5345C192.079 13.7985 192.553 13.9785 193.117 14.0745C193.693 14.1585 194.311 14.2605 194.971 14.3805C195.643 14.5005 196.261 14.6325 196.825 14.7765C197.401 14.9205 197.875 15.1785 198.247 15.5505C198.631 15.9105 198.823 16.3785 198.823 16.9545C198.823 17.7225 198.445 18.3525 197.689 18.8445C196.945 19.3245 195.925 19.5645 194.629 19.5645ZM205.963 19.5645C204.607 19.5645 203.539 19.2045 202.759 18.4845C201.991 17.7645 201.607 16.7565 201.607 15.4605V11.7885C201.607 11.1165 201.571 10.6245 201.499 10.3125H202.525C202.453 10.6245 202.417 11.1165 202.417 11.7885V15.4425C202.417 16.5345 202.741 17.3685 203.389 17.9445C204.037 18.5085 204.919 18.7905 206.035 18.7905C207.175 18.7905 208.165 18.4005 209.005 17.6205C209.845 16.8405 210.265 15.9165 210.265 14.8485V11.7885C210.265 11.1165 210.229 10.6245 210.157 10.3125H211.183C211.111 10.6245 211.075 11.1165 211.075 11.7885V17.8185C211.075 18.4905 211.111 18.9885 211.183 19.3125H210.157C210.229 18.9885 210.265 18.4905 210.265 17.8185V16.7745H210.139C209.863 17.6865 209.329 18.3825 208.537 18.8625C207.757 19.3305 206.899 19.5645 205.963 19.5645ZM218.501 19.5645C217.049 19.5645 215.921 19.2765 215.117 18.7005C214.313 18.1245 213.911 17.3505 213.911 16.3785C213.911 15.4185 214.307 14.6565 215.099 14.0925C215.903 13.5285 217.037 13.2465 218.501 13.2465C219.473 13.2465 220.337 13.4325 221.093 13.8045C221.861 14.1765 222.395 14.6205 222.695 15.1365H222.839V13.6965C222.839 12.6525 222.509 11.9085 221.849 11.4645C221.201 11.0205 220.235 10.7985 218.951 10.7985C218.207 10.7985 217.469 10.8825 216.737 11.0505C216.017 11.2065 215.441 11.3985 215.009 11.6265V10.8345C216.221 10.3185 217.529 10.0605 218.933 10.0605C222.077 10.0605 223.649 11.2785 223.649 13.7145V17.8185C223.649 18.5025 223.685 19.0005 223.757 19.3125H222.677C222.785 18.9405 222.839 18.4545 222.839 17.8545V17.5845H222.713C222.425 18.1365 221.897 18.6045 221.129 18.9885C220.361 19.3725 219.485 19.5645 218.501 19.5645ZM218.681 18.8445C219.377 18.8445 220.031 18.7605 220.643 18.5925C221.255 18.4125 221.771 18.1305 222.191 17.7465C222.623 17.3505 222.839 16.8825 222.839 16.3425C222.839 15.6345 222.407 15.0525 221.543 14.5965C220.691 14.1285 219.737 13.8945 218.681 13.8945C217.433 13.8945 216.461 14.1105 215.765 14.5425C215.081 14.9745 214.739 15.5745 214.739 16.3425C214.739 17.1105 215.087 17.7225 215.783 18.1785C216.479 18.6225 217.445 18.8445 218.681 18.8445ZM227.235 19.3125C227.307 18.9045 227.343 18.4065 227.343 17.8185V8.2065C227.343 7.6185 227.307 7.1205 227.235 6.7125H228.243C228.183 7.0485 228.153 7.5465 228.153 8.2065V17.8185C228.153 18.4785 228.183 18.9765 228.243 19.3125H227.235Z" fill="white"/>
</svg>
